<mxfile host="app.diagrams.net" agent="Mozilla/5.0 (Windows NT 10.0; Win64; x64) AppleWebKit/537.36 (KHTML, like Gecko) Chrome/136.0.0.0 Safari/537.36" version="27.0.6">
  <diagram name="Page-1" id="htJywXLXoLbZmV3sRL7C">
    <mxGraphModel grid="1" page="1" gridSize="10" guides="1" tooltips="1" connect="1" arrows="1" fold="1" pageScale="1" pageWidth="3000" pageHeight="3000" math="0" shadow="0">
      <root>
        <mxCell id="0" />
        <mxCell id="1" parent="0" />
        <mxCell id="W8iSTeVfT7IdS4T9xsOR-1" value="" style="html=1;whiteSpace=wrap;" vertex="1" parent="1">
          <mxGeometry x="670" y="270" width="220" height="590" as="geometry" />
        </mxCell>
        <mxCell id="W8iSTeVfT7IdS4T9xsOR-2" value="Sistem Peminjaman Barang Sarana &amp;amp; Prasarana" style="text;strokeColor=none;align=center;fillColor=none;html=1;verticalAlign=middle;whiteSpace=wrap;rounded=0;" vertex="1" parent="1">
          <mxGeometry x="700" y="290" width="160" height="30" as="geometry" />
        </mxCell>
        <mxCell id="W8iSTeVfT7IdS4T9xsOR-3" value="Login" style="ellipse;whiteSpace=wrap;html=1;" vertex="1" parent="1">
          <mxGeometry x="730" y="350" width="100" height="50" as="geometry" />
        </mxCell>
        <mxCell id="W8iSTeVfT7IdS4T9xsOR-4" value="Logout" style="ellipse;whiteSpace=wrap;html=1;" vertex="1" parent="1">
          <mxGeometry x="730" y="414" width="100" height="50" as="geometry" />
        </mxCell>
        <mxCell id="W8iSTeVfT7IdS4T9xsOR-5" value="Dashboard" style="ellipse;whiteSpace=wrap;html=1;" vertex="1" parent="1">
          <mxGeometry x="730" y="480" width="100" height="50" as="geometry" />
        </mxCell>
        <mxCell id="W8iSTeVfT7IdS4T9xsOR-6" value="CRUD Barang&lt;div&gt;atau Sarana&lt;/div&gt;" style="ellipse;whiteSpace=wrap;html=1;" vertex="1" parent="1">
          <mxGeometry x="730" y="550" width="100" height="50" as="geometry" />
        </mxCell>
        <mxCell id="W8iSTeVfT7IdS4T9xsOR-7" value="&lt;font style=&quot;font-size: 11px;&quot;&gt;Approval Peminjaman dan Pengembalian&lt;/font&gt;" style="ellipse;whiteSpace=wrap;html=1;" vertex="1" parent="1">
          <mxGeometry x="730" y="620" width="100" height="50" as="geometry" />
        </mxCell>
        <mxCell id="W8iSTeVfT7IdS4T9xsOR-8" value="Melakukan Peminjaman dan Pengembalian" style="ellipse;whiteSpace=wrap;html=1;" vertex="1" parent="1">
          <mxGeometry x="730" y="690" width="100" height="50" as="geometry" />
        </mxCell>
        <mxCell id="W8iSTeVfT7IdS4T9xsOR-9" value="Report Peminjaman dan Pengembalian" style="ellipse;whiteSpace=wrap;html=1;" vertex="1" parent="1">
          <mxGeometry x="730" y="760" width="100" height="50" as="geometry" />
        </mxCell>
        <mxCell id="W8iSTeVfT7IdS4T9xsOR-10" value="User" style="shape=umlActor;verticalLabelPosition=bottom;verticalAlign=top;html=1;" vertex="1" parent="1">
          <mxGeometry x="1040" y="460" width="70" height="140" as="geometry" />
        </mxCell>
        <mxCell id="W8iSTeVfT7IdS4T9xsOR-11" value="Admin" style="shape=umlActor;verticalLabelPosition=bottom;verticalAlign=top;html=1;" vertex="1" parent="1">
          <mxGeometry x="470" y="460" width="70" height="140" as="geometry" />
        </mxCell>
        <mxCell id="W8iSTeVfT7IdS4T9xsOR-12" value="" style="endArrow=none;html=1;rounded=0;entryX=0.5;entryY=1;entryDx=0;entryDy=0;exitX=0;exitY=0.5;exitDx=0;exitDy=0;" edge="1" parent="1" source="W8iSTeVfT7IdS4T9xsOR-3">
          <mxGeometry relative="1" as="geometry">
            <mxPoint x="650" y="700" as="sourcePoint" />
            <mxPoint x="550" y="530" as="targetPoint" />
          </mxGeometry>
        </mxCell>
        <mxCell id="W8iSTeVfT7IdS4T9xsOR-13" value="" style="endArrow=none;html=1;rounded=0;exitX=0;exitY=0.5;exitDx=0;exitDy=0;" edge="1" parent="1" source="W8iSTeVfT7IdS4T9xsOR-4">
          <mxGeometry relative="1" as="geometry">
            <mxPoint x="750" y="540" as="sourcePoint" />
            <mxPoint x="550" y="530" as="targetPoint" />
          </mxGeometry>
        </mxCell>
        <mxCell id="W8iSTeVfT7IdS4T9xsOR-14" value="" style="endArrow=none;html=1;rounded=0;exitX=0;exitY=0.5;exitDx=0;exitDy=0;" edge="1" parent="1" source="W8iSTeVfT7IdS4T9xsOR-5">
          <mxGeometry relative="1" as="geometry">
            <mxPoint x="770" y="550" as="sourcePoint" />
            <mxPoint x="550" y="530" as="targetPoint" />
          </mxGeometry>
        </mxCell>
        <mxCell id="W8iSTeVfT7IdS4T9xsOR-15" value="" style="endArrow=none;html=1;rounded=0;exitX=0;exitY=0.5;exitDx=0;exitDy=0;" edge="1" parent="1" source="W8iSTeVfT7IdS4T9xsOR-6">
          <mxGeometry relative="1" as="geometry">
            <mxPoint x="730" y="640" as="sourcePoint" />
            <mxPoint x="550" y="530" as="targetPoint" />
          </mxGeometry>
        </mxCell>
        <mxCell id="W8iSTeVfT7IdS4T9xsOR-16" value="" style="endArrow=none;html=1;rounded=0;exitX=0.016;exitY=0.575;exitDx=0;exitDy=0;exitPerimeter=0;" edge="1" parent="1" source="W8iSTeVfT7IdS4T9xsOR-7">
          <mxGeometry relative="1" as="geometry">
            <mxPoint x="780" y="670" as="sourcePoint" />
            <mxPoint x="550" y="530" as="targetPoint" />
          </mxGeometry>
        </mxCell>
        <mxCell id="W8iSTeVfT7IdS4T9xsOR-17" value="" style="endArrow=none;html=1;rounded=0;exitX=0;exitY=0.5;exitDx=0;exitDy=0;" edge="1" parent="1" source="W8iSTeVfT7IdS4T9xsOR-9">
          <mxGeometry relative="1" as="geometry">
            <mxPoint x="770" y="690" as="sourcePoint" />
            <mxPoint x="550" y="530" as="targetPoint" />
          </mxGeometry>
        </mxCell>
        <mxCell id="W8iSTeVfT7IdS4T9xsOR-18" value="" style="endArrow=none;html=1;rounded=0;entryX=1.005;entryY=0.636;entryDx=0;entryDy=0;entryPerimeter=0;" edge="1" parent="1" target="W8iSTeVfT7IdS4T9xsOR-3">
          <mxGeometry relative="1" as="geometry">
            <mxPoint x="1030" y="530" as="sourcePoint" />
            <mxPoint x="990" y="665" as="targetPoint" />
          </mxGeometry>
        </mxCell>
        <mxCell id="W8iSTeVfT7IdS4T9xsOR-19" value="" style="endArrow=none;html=1;rounded=0;entryX=1.005;entryY=0.636;entryDx=0;entryDy=0;entryPerimeter=0;" edge="1" parent="1">
          <mxGeometry relative="1" as="geometry">
            <mxPoint x="1029" y="530" as="sourcePoint" />
            <mxPoint x="830" y="440" as="targetPoint" />
          </mxGeometry>
        </mxCell>
        <mxCell id="W8iSTeVfT7IdS4T9xsOR-20" value="" style="endArrow=none;html=1;rounded=0;entryX=1;entryY=0.5;entryDx=0;entryDy=0;" edge="1" parent="1" target="W8iSTeVfT7IdS4T9xsOR-5">
          <mxGeometry relative="1" as="geometry">
            <mxPoint x="1030" y="530" as="sourcePoint" />
            <mxPoint x="830" y="575" as="targetPoint" />
          </mxGeometry>
        </mxCell>
        <mxCell id="W8iSTeVfT7IdS4T9xsOR-21" value="" style="endArrow=none;html=1;rounded=0;entryX=1;entryY=0.5;entryDx=0;entryDy=0;" edge="1" parent="1" target="W8iSTeVfT7IdS4T9xsOR-8">
          <mxGeometry relative="1" as="geometry">
            <mxPoint x="1030" y="530" as="sourcePoint" />
            <mxPoint x="950" y="610" as="targetPoint" />
          </mxGeometry>
        </mxCell>
        <mxCell id="W8iSTeVfT7IdS4T9xsOR-22" value="&lt;span style=&quot;font-size: 50px;&quot;&gt;&lt;b&gt;USECASE&lt;/b&gt;&lt;/span&gt;" style="text;strokeColor=none;align=center;fillColor=none;html=1;verticalAlign=middle;whiteSpace=wrap;rounded=0;" vertex="1" parent="1">
          <mxGeometry x="650" y="100" width="260" height="190" as="geometry" />
        </mxCell>
      </root>
    </mxGraphModel>
  </diagram>
</mxfile>
